<svg version="1.1" style="font-family:&quot;Lucida Grande&quot;, &quot;Lucida Sans Unicode&quot;, Arial, Helvetica, sans-serif;font-size:12px;" xmlns="http://www.w3.org/2000/svg" width="474" height="400"><style type="text/css"><![CDATA[
* { box-sizing: border-box; }

]]></style><desc>Created with Highcharts 4.2.6</desc><defs><clipPath id="highcharts-3"><rect x="0" y="0" width="344" height="327"></rect></clipPath></defs><rect x="0" y="0" width="474" height="400" fill="#FFFFFF" class=" highcharts-background"></rect><path fill="none" d="M 118.5 10 L 118.5 337" stroke="red" stroke-width="1" stroke-dasharray="4,3"></path><path fill="#eee" d="M 99.5 10 L 99.5 337 118.5 337 118.5 10"></path><text x="157" text-anchor="start" transform="translate(0,0)" style="color:#777777;fill:#777777;" y="26" visibility="visible"><tspan>n &gt;=70</tspan></text><g class="highcharts-grid"></g><g class="highcharts-grid"><path fill="none" d="M 100 337.5 L 444 337.5" stroke="#D8D8D8" stroke-width="1" opacity="1"></path><path fill="none" d="M 100 283.5 L 444 283.5" stroke="#D8D8D8" stroke-width="1" opacity="1"></path><path fill="none" d="M 100 228.5 L 444 228.5" stroke="#D8D8D8" stroke-width="1" opacity="1"></path><path fill="none" d="M 100 174.5 L 444 174.5" stroke="#D8D8D8" stroke-width="1" opacity="1"></path><path fill="none" d="M 100 119.5 L 444 119.5" stroke="#D8D8D8" stroke-width="1" opacity="1"></path><path fill="none" d="M 100 65.5 L 444 65.5" stroke="#D8D8D8" stroke-width="1" opacity="1"></path><path fill="none" d="M 100 9.5 L 444 9.5" stroke="#D8D8D8" stroke-width="1" opacity="1"></path></g><g class="highcharts-axis"><path fill="none" d="M 141.5 337 L 141.5 347" stroke="#C0D0E0" stroke-width="1" opacity="1"></path><path fill="none" d="M 216.5 337 L 216.5 347" stroke="#C0D0E0" stroke-width="1" opacity="1"></path><path fill="none" d="M 292.5 337 L 292.5 347" stroke="#C0D0E0" stroke-width="1" opacity="1"></path><path fill="none" d="M 367.5 337 L 367.5 347" stroke="#C0D0E0" stroke-width="1" opacity="1"></path><path fill="none" d="M 444.5 337 L 444.5 347" stroke="#C0D0E0" stroke-width="1" opacity="1"></path><text x="272" text-anchor="middle" transform="translate(0,0)" class=" highcharts-xaxis-title" style="color:#707070;fill:#707070;" y="378.578125"><tspan>Number of Samples</tspan></text><path fill="none" d="M 100 337.5 L 444 337.5" stroke="#C0D0E0" stroke-width="1"></path></g><g class="highcharts-axis"><text x="44.21875" text-anchor="middle" transform="translate(0,0) rotate(270 44.21875 173.5)" class=" highcharts-yaxis-title" style="color:#707070;fill:#707070;" y="173.5"><tspan>Number of eGenes</tspan></text></g><g class="highcharts-series-group"><path fill="#FFAAFF" fill-opacity="0.25" d="M 0 0"></path><g class="highcharts-series highcharts-series-0 highcharts-tracker" transform="translate(100,10) scale(1 1)" clip-path="url(#highcharts-3)" style="cursor:pointer;"></g><g class="highcharts-markers highcharts-series-0 highcharts-tracker" transform="translate(100,10) scale(1 1)" clip-path="url(#highcharts-4)" style="cursor:pointer;"><path fill="#FF00BB" d="M 244 133.1466 C 250.66 133.1466 250.66 143.1466 244 143.1466 C 237.34 143.1466 237.34 133.1466 244 133.1466 Z" stroke-width="1"></path><path fill="#FF5599" d="M 46 266.9114 C 52.66 266.9114 52.66 276.9114 46 276.9114 C 39.34 276.9114 39.34 266.9114 46 266.9114 Z" stroke-width="1"></path><path fill="#FF66FF" d="M 42 264.4262 C 48.66 264.4262 48.66 274.4262 42 274.4262 C 35.34 274.4262 35.34 264.4262 42 264.4262 Z"></path><path fill="#006600" d="M 267 9.976600000000019 C 273.66 9.976600000000019 273.66 19.97660000000002 267 19.97660000000002 C 260.34 19.97660000000002 260.34 9.976600000000019 267 9.976600000000019 Z" stroke-width="1"></path><path fill="#AAAAAA" d="M 136 22.053800000000024 C 142.66 22.053800000000024 142.66 32.053800000000024 136 32.053800000000024 C 129.34 32.053800000000024 129.34 22.053800000000024 136 22.053800000000024 Z" stroke-width="1"></path><path fill="#FFDD99" d="M 145 182.8288 C 151.66 182.8288 151.66 192.8288 145 192.8288 C 138.34 192.8288 138.34 182.8288 145 182.8288 Z" stroke-width="1"></path><path fill="#778855" d="M 76 178.5996 C 82.66 178.5996 82.66 188.5996 76 188.5996 C 69.34 188.5996 69.34 178.5996 76 178.5996 Z"></path><path fill="#555522" d="M 58 218.16660000000002 C 64.66 218.16660000000002 64.66 228.16660000000002 58 228.16660000000002 C 51.34 228.16660000000002 51.34 218.16660000000002 58 218.16660000000002 Z"></path><path fill="#7777FF" d="M 278 36.22379999999998 C 284.66 36.22379999999998 284.66 46.22379999999998 278 46.22379999999998 C 271.34 46.22379999999998 271.34 36.22379999999998 278 36.22379999999998 Z"></path><path fill="#0000FF" d="M 219 85.31739999999999 C 225.66 85.31739999999999 225.66 95.31739999999999 219 95.31739999999999 C 212.34 95.31739999999999 212.34 85.31739999999999 219 85.31739999999999 Z"></path><path fill="#DDDDDD" d="M 65 229.5026 C 71.66 229.5026 71.66 239.5026 65 239.5026 C 58.34 239.5026 58.34 229.5026 65 229.5026 Z"></path><path fill="#AAFF99" d="M 84 185.4666 C 90.66 185.4666 90.66 195.4666 84 195.4666 C 77.34 195.4666 77.34 185.4666 84 185.4666 Z" stroke-width="1"></path><path fill="#995522" d="M 132 166.2172 C 138.66 166.2172 138.66 176.2172 132 176.2172 C 125.34 176.2172 125.34 166.2172 132 166.2172 Z" stroke-width="1"></path><path fill="#FFAAFF" d="M 58 239.3998 C 64.66 239.3998 64.66 249.3998 58 249.3998 C 51.34 249.3998 51.34 239.3998 58 239.3998 Z" stroke-width="1"></path><path fill="#FFD700" d="M 238 17.323199999999986 C 244.66 17.323199999999986 244.66 27.323199999999986 238 27.323199999999986 C 231.34 27.323199999999986 231.34 17.323199999999986 238 17.323199999999986 Z"></path><path fill="#AAAAFF" d="M 337 87.06139999999999 C 343.66 87.06139999999999 343.66 97.06139999999999 337 97.06139999999999 C 330.34 97.06139999999999 330.34 87.06139999999999 337 87.06139999999999 Z" stroke-width="1"></path><path fill="#99BB88" d="M 30 275.13 C 36.66 275.13 36.66 285.13 30 285.13 C 23.34 285.13 23.34 275.13 30 275.13 Z"></path><path fill="#99FF00" d="M 255 75.50739999999999 C 261.66 75.50739999999999 261.66 85.50739999999999 255 85.50739999999999 C 248.34 85.50739999999999 248.34 75.50739999999999 255 75.50739999999999 Z"></path><path fill="#AABB66" d="M 81 234.691 C 87.66 234.691 87.66 244.691 81 244.691 C 74.34 244.691 74.34 234.691 81 234.691 Z" stroke-width="1"></path><path fill="#660099" d="M 171 161.1814 C 177.66 161.1814 177.66 171.1814 171 171.1814 C 164.34 171.1814 164.34 161.1814 171 161.1814 Z" stroke-width="1"></path><path fill="#9900FF" d="M 165 145.5072 C 171.66 145.5072 171.66 155.5072 165 155.5072 C 158.34 155.5072 158.34 145.5072 165 145.5072 Z"></path><path fill="#BB9988" d="M 219 80.6522 C 225.66 80.6522 225.66 90.6522 219 90.6522 C 212.34 90.6522 212.34 80.6522 219 80.6522 Z"></path><path fill="#552200" d="M 236 67.07079999999999 C 242.66 67.07079999999999 242.66 77.07079999999999 236 77.07079999999999 C 229.34 77.07079999999999 229.34 67.07079999999999 236 67.07079999999999 Z"></path><path fill="#8B7355" d="M 127 163.8628 C 133.66 163.8628 133.66 173.8628 127 173.8628 C 120.34 173.8628 120.34 163.8628 127 163.8628 Z"></path><path fill="#CC9955" d="M 151 145.5508 C 157.66 145.5508 157.66 155.5508 151 155.5508 C 144.34 155.5508 144.34 145.5508 151 145.5508 Z" stroke-width="1"></path><path fill="#EEBB77" d="M 119 165.9338 C 125.66 165.9338 125.66 175.9338 119 175.9338 C 112.34 175.9338 112.34 165.9338 119 165.9338 Z" stroke-width="1"></path><path fill="#AAEEFF" d="M 192 80.21620000000001 C 198.66 80.21620000000001 198.66 90.21620000000001 192 90.21620000000001 C 185.34 90.21620000000001 185.34 80.21620000000001 192 80.21620000000001 Z"></path><path fill="#CC66FF" d="M 54 238.179 C 60.66 238.179 60.66 248.179 54 248.179 C 47.34 248.179 47.34 238.179 54 238.179 Z"></path><path fill="#33CCCC" d="M 155 169.7706 C 161.66 169.7706 161.66 179.7706 155 179.7706 C 148.34 179.7706 148.34 169.7706 155 169.7706 Z"></path><path fill="#EEEE00" d="M 26 282.6074 C 32.66 282.6074 32.66 292.6074 26 292.6074 C 19.34 292.6074 19.34 282.6074 26 282.6074 Z" stroke-width="1"></path><path fill="#EEEE00" d="M 28 264.3608 C 34.66 264.3608 34.66 274.3608 28 274.3608 C 21.34 274.3608 21.34 264.3608 28 264.3608 Z"></path><path fill="#EEEE00" d="M 49 232.6418 C 55.66 232.6418 55.66 242.6418 49 242.6418 C 42.34 242.6418 42.34 232.6418 49 232.6418 Z"></path><path fill="#EEEE00" d="M 64 210.42759999999998 C 70.66 210.42759999999998 70.66 220.42759999999998 64 220.42759999999998 C 57.34 220.42759999999998 57.34 210.42759999999998 64 210.42759999999998 Z"></path><path fill="#EEEE00" d="M 47 254.9214 C 53.66 254.9214 53.66 264.9214 47 264.9214 C 40.34 264.9214 40.34 254.9214 47 254.9214 Z"></path><path fill="#EEEE00" d="M 49 250.8884 C 55.66 250.8884 55.66 260.8884 49 260.8884 C 42.34 260.8884 42.34 250.8884 49 250.8884 Z"></path><path fill="#EEEE00" d="M 55 211.1252 C 61.66 211.1252 61.66 221.1252 55 221.1252 C 48.34 221.1252 48.34 211.1252 55 211.1252 Z" stroke-width="1"></path><path fill="#EEEE00" d="M 68 188.0172 C 74.66 188.0172 74.66 198.0172 68 198.0172 C 61.34 198.0172 61.34 188.0172 68 188.0172 Z" stroke-width="1"></path><path fill="#EEEE00" d="M 82 138.2478 C 88.66 138.2478 88.66 148.2478 82 148.2478 C 75.34 148.2478 75.34 138.2478 82 138.2478 Z" stroke-width="1"></path><path fill="#EEEE00" d="M 60 171.8198 C 66.66 171.8198 66.66 181.8198 60 181.8198 C 53.34 181.8198 53.34 171.8198 60 171.8198 Z" stroke-width="1"></path><path fill="#EEEE00" d="M 74 197.74 C 80.66 197.74 80.66 207.74 74 207.74 C 67.34 207.74 67.34 197.74 74 197.74 Z"></path><path fill="#EEEE00" d="M 48 232.5546 C 54.66 232.5546 54.66 242.5546 48 242.5546 C 41.34 242.5546 41.34 232.5546 48 232.5546 Z" stroke-width="1"></path><path fill="#EEEE00" d="M 32 273.4078 C 38.66 273.4078 38.66 283.4078 32 283.4078 C 25.34 283.4078 25.34 273.4078 32 273.4078 Z"></path><path fill="#FF0000" d="M 259 61.55540000000002 C 265.66 61.55540000000002 265.66 71.55540000000002 259 71.55540000000002 C 252.34 71.55540000000002 252.34 61.55540000000002 259 61.55540000000002 Z"></path><path fill="#FFAA99" d="M 80 226.4506 C 86.66 226.4506 86.66 236.4506 80 236.4506 C 73.34 236.4506 73.34 226.4506 80 226.4506 Z"></path><path fill="#FF5555" d="M 167 121.33099999999999 C 173.66 121.33099999999999 173.66 131.331 167 131.331 C 160.34 131.331 160.34 121.33099999999999 167 121.33099999999999 Z"></path><path fill="#33DD33" d="M 98 182.0222 C 104.66 182.0222 104.66 192.0222 98 192.0222 C 91.34 192.0222 91.34 182.0222 98 182.0222 Z" stroke-width="1"></path><path fill="#FFAA00" d="M 202 125.99619999999999 C 208.66 125.99619999999999 208.66 135.9962 202 135.9962 C 195.34 135.9962 195.34 125.99619999999999 202 125.99619999999999 Z" stroke-width="1"></path><path fill="#FF6600" d="M 257 63.321199999999976 C 263.66 63.321199999999976 263.66 73.32119999999998 257 73.32119999999998 C 250.34 73.32119999999998 250.34 63.321199999999976 257 63.321199999999976 Z"></path></g></g><g class="highcharts-axis-labels highcharts-xaxis-labels"><text x="141.58241758241758" style="color:#606060;cursor:default;font-size:11px;fill:#606060;" text-anchor="middle" transform="translate(0,0)" y="356" opacity="1">100</text><text x="217.1868131868132" style="color:#606060;cursor:default;font-size:11px;fill:#606060;" text-anchor="middle" transform="translate(0,0)" y="356" opacity="1">200</text><text x="292.79120879120876" style="color:#606060;cursor:default;font-size:11px;fill:#606060;" text-anchor="middle" transform="translate(0,0)" y="356" opacity="1">300</text><text x="368.3956043956044" style="color:#606060;cursor:default;font-size:11px;fill:#606060;" text-anchor="middle" transform="translate(0,0)" y="356" opacity="1">400</text><text x="444" style="color:#606060;cursor:default;font-size:11px;fill:#606060;" text-anchor="middle" transform="translate(0,0)" y="356" opacity="1">500</text></g><g class="highcharts-axis-labels highcharts-yaxis-labels"><text x="85" style="color:#606060;cursor:default;font-size:11px;fill:#606060;width:80px;text-overflow:clip;" text-anchor="end" transform="translate(0,0)" y="340" opacity="1"><tspan>0</tspan></text><text x="85" style="color:#606060;cursor:default;font-size:11px;fill:#606060;width:80px;text-overflow:clip;" text-anchor="end" transform="translate(0,0)" y="285" opacity="1"><tspan>2.5k</tspan></text><text x="85" style="color:#606060;cursor:default;font-size:11px;fill:#606060;width:80px;text-overflow:clip;" text-anchor="end" transform="translate(0,0)" y="231" opacity="1"><tspan>5k</tspan></text><text x="85" style="color:#606060;cursor:default;font-size:11px;fill:#606060;width:80px;text-overflow:clip;" text-anchor="end" transform="translate(0,0)" y="176" opacity="1"><tspan>7.5k</tspan></text><text x="85" style="color:#606060;cursor:default;font-size:11px;fill:#606060;width:80px;text-overflow:clip;" text-anchor="end" transform="translate(0,0)" y="122" opacity="1"><tspan>10k</tspan></text><text x="85" style="color:#606060;cursor:default;font-size:11px;fill:#606060;width:80px;text-overflow:clip;" text-anchor="end" transform="translate(0,0)" y="67" opacity="1"><tspan>12.5k</tspan></text><text x="85" style="color:#606060;cursor:default;font-size:11px;fill:#606060;width:80px;text-overflow:clip;" text-anchor="end" transform="translate(0,0)" y="13" opacity="1"><tspan>15k</tspan></text></g><g class="highcharts-tooltip" style="cursor:default;padding:0;pointer-events:none;white-space:nowrap;" transform="translate(69,-9999)" opacity="0" visibility="visible"><path fill="none" d="M 3.5 0.5 L 175.5 0.5 C 178.5 0.5 178.5 0.5 178.5 3.5 L 178.5 46.5 C 178.5 49.5 178.5 49.5 175.5 49.5 L 94.5 49.5 88.5 55.5 82.5 49.5 3.5 49.5 C 0.5 49.5 0.5 49.5 0.5 46.5 L 0.5 3.5 C 0.5 0.5 0.5 0.5 3.5 0.5" isShadow="true" stroke="black" stroke-opacity="0.049999999999999996" stroke-width="5" transform="translate(1, 1)"></path><path fill="none" d="M 3.5 0.5 L 175.5 0.5 C 178.5 0.5 178.5 0.5 178.5 3.5 L 178.5 46.5 C 178.5 49.5 178.5 49.5 175.5 49.5 L 94.5 49.5 88.5 55.5 82.5 49.5 3.5 49.5 C 0.5 49.5 0.5 49.5 0.5 46.5 L 0.5 3.5 C 0.5 0.5 0.5 0.5 3.5 0.5" isShadow="true" stroke="black" stroke-opacity="0.09999999999999999" stroke-width="3" transform="translate(1, 1)"></path><path fill="none" d="M 3.5 0.5 L 175.5 0.5 C 178.5 0.5 178.5 0.5 178.5 3.5 L 178.5 46.5 C 178.5 49.5 178.5 49.5 175.5 49.5 L 94.5 49.5 88.5 55.5 82.5 49.5 3.5 49.5 C 0.5 49.5 0.5 49.5 0.5 46.5 L 0.5 3.5 C 0.5 0.5 0.5 0.5 3.5 0.5" isShadow="true" stroke="black" stroke-opacity="0.15" stroke-width="1" transform="translate(1, 1)"></path><path fill="rgba(249, 249, 249, .85)" d="M 3.5 0.5 L 175.5 0.5 C 178.5 0.5 178.5 0.5 178.5 3.5 L 178.5 46.5 C 178.5 49.5 178.5 49.5 175.5 49.5 L 94.5 49.5 88.5 55.5 82.5 49.5 3.5 49.5 C 0.5 49.5 0.5 49.5 0.5 46.5 L 0.5 3.5 C 0.5 0.5 0.5 0.5 3.5 0.5" stroke="#FFAAFF" stroke-width="1"></path><text x="8" style="font-size:12px;color:#333333;fill:#333333;" y="20"><tspan style="font-weight:bold">Ovary</tspan><tspan x="8" dy="15">122 samples, 3 789 eGenes</tspan></text></g></svg>